<?xml version="1.0" encoding="iso-8859-1"?>
<!-- Generator: Adobe Illustrator 19.0.0, SVG Export Plug-In . SVG Version: 6.00 Build 0)  -->
<svg version="1.1" id="Capa_1" xmlns="http://www.w3.org/2000/svg" xmlns:xlink="http://www.w3.org/1999/xlink" x="0px" y="0px"
	 viewBox="0 0 512.001 512.001" style="enable-background:new 0 0 512.001 512.001;" xml:space="preserve">
<rect x="8.6" y="179.982" style="fill:#76FFD9;" width="371.401" height="274.924"/>
<polygon style="fill:#FFFFFF;" points="379.999,179.987 379.999,454.909 149.49,454.909 226.574,179.987 "/>
<rect x="8.603" y="179.993" style="fill:#FFC843;" width="371.401" height="55.253"/>
<polygon style="fill:#FCD8A9;" points="380.004,179.991 380.004,235.244 211.082,235.244 226.577,179.991 "/>
<rect x="69.602" y="118.987" style="fill:#E1EAF8;" width="371.401" height="274.924"/>
<polygon style="fill:#FFFFFF;" points="441.001,118.985 441.001,393.907 210.493,393.907 287.575,118.985 "/>
<rect x="69.605" y="118.987" style="fill:#5DE0BF;" width="371.401" height="55.253"/>
<polygon style="fill:#FCD8A9;" points="441.007,118.989 441.007,174.242 272.085,174.242 287.58,118.989 "/>
<rect x="132.006" y="56.582" style="fill:#76FFD9;" width="371.401" height="274.924"/>
<polygon style="fill:#FFFFFF;" points="503.406,56.586 503.406,331.507 272.896,331.507 349.979,56.586 "/>
<rect x="132.006" y="56.594" style="fill:#FFA816;" width="371.401" height="55.253"/>
<polygon style="fill:#FFC843;" points="503.41,56.59 503.41,111.843 334.488,111.843 349.983,56.59 "/>
<path style="fill:#434C54;" d="M503.404,276.365c4.748,0,8.596-3.849,8.596-8.596V56.839c0-4.747-3.847-8.596-8.596-8.596H132.002
	c-4.747,0-8.596,3.849-8.596,8.596V331.76c0,4.747,3.849,8.596,8.596,8.596h371.404c4.748,0,8.596-3.849,8.596-8.596v-35.34
	c0-4.747-3.847-8.596-8.596-8.596s-8.596,3.849-8.596,8.596v26.744H140.598V65.435H494.81V267.77
	C494.809,272.517,498.657,276.365,503.404,276.365z"/>
<g>
	<circle style="fill:#FFFFFF;" cx="168.211" cy="84.914" r="8.596"/>
	<circle style="fill:#FFFFFF;" cx="223.797" cy="84.914" r="8.596"/>
	<circle style="fill:#FFFFFF;" cx="196.004" cy="84.914" r="8.596"/>
</g>
<path style="fill:#434C54;" d="M441.006,346.888c-4.748,0-8.596,3.849-8.596,8.596v30.08H78.198v-257.73h31.727
	c4.747,0,8.596-3.849,8.596-8.596c0-4.747-3.849-8.596-8.596-8.596H69.602c-4.747,0-8.596,3.849-8.596,8.596v274.921
	c0,4.747,3.849,8.596,8.596,8.596h371.404c4.748,0,8.596-3.849,8.596-8.596v-38.676
	C449.601,350.736,445.754,346.888,441.006,346.888z"/>
<circle style="fill:#FFFFFF;" cx="99.412" cy="150.848" r="8.596"/>
<path style="fill:#434C54;" d="M380.006,411.506c-4.748,0-8.596,3.849-8.596,8.596v26.462l-354.215,0.001l-0.005-257.732h28.681
	c4.747,0,8.596-3.849,8.596-8.596s-3.849-8.596-8.596-8.596H8.596c-4.747,0-8.596,3.849-8.596,8.596l0.005,274.925
	c0,4.747,3.849,8.596,8.596,8.596h322.669l48.737-0.001c4.748,0,8.596-3.849,8.596-8.596v-35.058
	C388.602,415.355,384.754,411.506,380.006,411.506z"/>
<circle style="fill:#FFFFFF;" cx="38.944" cy="213.046" r="8.596"/>
<g>
</g>
<g>
</g>
<g>
</g>
<g>
</g>
<g>
</g>
<g>
</g>
<g>
</g>
<g>
</g>
<g>
</g>
<g>
</g>
<g>
</g>
<g>
</g>
<g>
</g>
<g>
</g>
<g>
</g>
</svg>
