<?xml version="1.0" encoding="iso-8859-1"?>
<!-- Generator: Adobe Illustrator 19.0.0, SVG Export Plug-In . SVG Version: 6.00 Build 0)  -->
<svg version="1.1" id="Capa_1" xmlns="http://www.w3.org/2000/svg" xmlns:xlink="http://www.w3.org/1999/xlink" x="0px" y="0px"
	 viewBox="0 0 512 512" style="enable-background:new 0 0 512 512;" xml:space="preserve">
<polygon style="fill:#FFC843;" points="244.167,452.781 169.686,452.781 175.923,426.805 181.947,401.743 231.916,401.743 
	237.93,426.805 "/>
<g>
	<polygon style="fill:#FFA816;" points="237.93,426.805 175.923,426.805 181.947,401.743 205.637,375.938 231.916,401.743 	"/>
	<path style="fill:#FFA816;" d="M405.544,133.988v241.468c0,14.517-11.77,26.286-26.286,26.286H34.605
		c-14.517,0-26.286-11.77-26.286-26.286V133.988c0-14.517,11.77-26.286,26.286-26.286h344.654
		C393.775,107.702,405.544,119.471,405.544,133.988z"/>
</g>
<path style="fill:#FFC843;" d="M405.544,133.989v241.468c0,14.517-11.77,26.286-26.286,26.286H168.096l82.443-294.039h128.72
	C393.775,107.704,405.544,119.472,405.544,133.989z"/>
<rect x="8.318" y="143.766" style="fill:#76FFD9;" width="397.226" height="221.922"/>
<polygon style="fill:#FFFFFF;" points="405.544,143.763 405.544,365.683 178.208,365.683 240.427,143.763 "/>
<path style="fill:#76FFD9;" d="M398.43,123.32c23.708,32.326,16.708,77.742-15.618,101.45
	c-32.326,23.697-77.742,16.708-101.45-15.618c-23.697-32.326-16.708-77.753,15.629-101.45
	C329.317,83.994,374.733,90.994,398.43,123.32z"/>
<path style="fill:#FF8025;" d="M426.407,102.815c30.82,42.034,26.528,99.057-7.517,136.001c-4.629,5.045-9.82,9.719-15.562,13.921
	c-5.742,4.202-11.753,7.753-17.966,10.663c-45.483,21.348-101.146,8.292-131.967-33.742
	c-35.034-47.775-24.697-114.899,23.079-149.933C324.25,44.702,391.385,55.039,426.407,102.815z M382.812,224.77
	c32.326-23.708,39.326-69.124,15.618-101.45c-23.697-32.326-69.113-39.326-101.439-15.618
	c-32.337,23.697-39.326,69.124-15.629,101.45C305.07,241.478,350.486,248.467,382.812,224.77z"/>
<path style="fill:#FFFFFF;" d="M495.093,377.917c-3.697,2.708-8,4.022-12.27,4.022c-6.393,0-12.708-2.944-16.787-8.506
	l-66.764-91.057l-13.91-18.978c6.214-2.91,12.225-6.461,17.966-10.663s10.933-8.876,15.562-13.921l14.787,20.169l65.888,89.877
	C506.352,358.119,504.352,371.119,495.093,377.917z"/>
<path style="fill:#FFC843;" d="M418.891,238.815c-4.629,5.045-9.82,9.719-15.562,13.921c-5.742,4.202-11.753,7.753-17.966,10.663
	l13.91,18.978c1.18-0.494,2.348-1.011,3.506-1.562c6.214-2.91,12.225-6.461,17.966-10.663c4.685-3.427,9-7.169,12.933-11.169
	L418.891,238.815z"/>
<path style="fill:#FFFFFF;" d="M376.868,227.579l0.494,0.82c-31.809,19.225-73.596,11.303-96-19.247
	c-16.36-22.315-18.09-50.877-6.955-74.214h68.315c18.854,0,34.146,15.292,34.146,34.146V227.579z"/>
<path style="fill:#FFC843;" d="M398.43,123.32c23.708,32.326,16.708,77.742-15.618,101.45c-1.775,1.303-3.596,2.517-5.449,3.629
	l-0.494-0.82v-58.495c0-18.854-15.292-34.146-34.146-34.146h-68.315c4.989-10.472,12.573-19.899,22.584-27.236
	C329.317,83.994,374.733,90.994,398.43,123.32z"/>
<g>
	<path style="fill:#434C54;" d="M8.427,176.203c4.654,0,8.427-3.773,8.427-8.427v-32.36c0-9.789,7.964-17.753,17.753-17.753h188.99
		c4.654,0,8.427-3.773,8.427-8.427c0-4.654-3.773-8.427-8.427-8.427H34.607C15.525,100.809,0,116.334,0,135.416v32.36
		C0,172.43,3.773,176.203,8.427,176.203z"/>
	<path style="fill:#434C54;" d="M403.923,318.281c-4.654,0-8.427,3.773-8.427,8.427l0.004,49.109
		c0,9.784-7.961,17.745-17.745,17.745H34.604c-9.784,0-17.745-7.961-17.745-17.745v-180.21c0-4.654-3.773-8.427-8.427-8.427
		s-8.427,3.773-8.427,8.427v180.21c0,19.078,15.521,34.599,34.599,34.599h136.011l-8.154,33.964h-33.057
		c-4.654,0-8.427,3.773-8.427,8.427c0,4.654,3.773,8.427,8.427,8.427h39.701h74.151h39.7c4.654,0,8.427-3.773,8.427-8.427
		c0-4.654-3.773-8.427-8.427-8.427h-33.057l-8.154-33.964h136.011c19.078,0,34.599-15.521,34.599-34.601l-0.004-49.107
		C412.35,322.054,408.577,318.281,403.923,318.281z M232.565,444.38h-52.771l8.154-33.964h36.463L232.565,444.38z"/>
	<path style="fill:#434C54;" d="M506.361,344.126l-35.579-48.532c-2.752-3.753-8.026-4.565-11.779-1.815
		c-3.754,2.752-4.565,8.026-1.815,11.779l35.579,48.532c4.027,5.494,2.833,13.246-2.656,17.276
		c-2.137,1.566-4.657,2.393-7.289,2.393c-3.99,0-7.631-1.845-9.991-5.062l-74.89-102.145c3.558-2.069,7.026-4.326,10.363-6.769
		c3.331-2.438,6.519-5.074,9.569-7.855l24.03,32.779c1.652,2.252,4.21,3.445,6.803,3.445c1.729,0,3.474-0.53,4.976-1.631
		c3.753-2.752,4.565-8.025,1.814-11.779l-25.853-35.265c32.973-40.442,34.796-98.797,3.56-141.398
		c-18.27-24.921-45.153-41.237-75.698-45.941c-30.544-4.703-61.092,2.767-86.015,21.037
		c-51.447,37.726-62.614,110.27-24.891,161.712c22.362,30.498,57.527,47.28,93.495,47.28c14.271,0,28.668-2.648,42.442-8.125
		l76.706,104.621c5.487,7.482,14.302,11.949,23.582,11.949c6.238,0,12.203-1.954,17.256-5.657
		C513.061,375.427,515.878,357.11,506.361,344.126z M340.066,265.32c-30.725-0.001-60.77-14.342-79.874-40.397
		C227.964,180.976,237.504,119,281.456,86.77c17.133-12.56,37.375-19.145,58.227-19.145c5.061,0,10.16,0.388,15.257,1.173
		c26.096,4.019,49.063,17.957,64.671,39.248c27.872,38.013,24.963,90.712-6.918,125.306c-0.004,0.005-0.008,0.009-0.012,0.013
		c-4.322,4.71-9.144,9.024-14.33,12.819c-5.221,3.821-10.794,7.129-16.57,9.835C368.39,262.304,354.159,265.32,340.066,265.32z"/>
</g>
<g>
</g>
<g>
</g>
<g>
</g>
<g>
</g>
<g>
</g>
<g>
</g>
<g>
</g>
<g>
</g>
<g>
</g>
<g>
</g>
<g>
</g>
<g>
</g>
<g>
</g>
<g>
</g>
<g>
</g>
</svg>
